<?xml version="1.0" encoding="utf-8"?>
<!-- Generator: Adobe Illustrator 28.3.0, SVG Export Plug-In . SVG Version: 6.00 Build 0)  -->
<svg version="1.1" id="Laag_1" xmlns="http://www.w3.org/2000/svg" xmlns:xlink="http://www.w3.org/1999/xlink" x="0px" y="0px"
	 viewBox="0 0 419.5 595.3" style="enable-background:new 0 0 419.5 595.3;" xml:space="preserve">
<style type="text/css">
	.st0{fill:#E52421;}
</style>
<path class="st0" d="M474.2,177.5c-0.2,1.1-0.4,2.2-0.6,3.3l0.9-3.3H474.2z"/>
<path class="st0" d="M531,78.8c-47.5,19.2-76.6,83.8-82.8,98.6H-32.6l69.3,237.1h373.9l61-226.6l1.9-7.2c0-0.1,0-0.1,0-0.1
	c0.2-1.1,0.4-2.2,0.6-3.3c13.2-63.1,67.1-87.3,67.1-87.3S541.3,90.1,531,78.8z M416.1,183.7l10.9,44h-37.5l-13.6-44H416.1z
	 M356.7,281.4l-13.6-44h40.2l10.9,44H356.7z M399.3,292.7l10.9,44h-37.5l-13.6-44H399.3z M97.3,293.3l10.9,44H70.7l-13.6-44H97.3z
	 M54.6,282l-13.6-44h40.2l10.9,44H54.6z M107.4,281.6l-13.6-44H134l10.9,44H107.4z M142.3,237.6h40.2l10.9,44h-37.5L142.3,237.6z
	 M198.6,292.9l10.9,44h-37.5l-13.6-44H198.6z M207,281.8l-13.6-44h40.2l10.9,44H207z M241.9,237.8h40.2l10.9,44h-37.5L241.9,237.8z
	 M249.6,293.1l10.9,44H223l-13.6-44H249.6z M257.9,293.1h40.2l10.9,44h-37.5L257.9,293.1z M308.2,281.4l-13.6-44h40.2l10.9,44H308.2
	z M368.6,183.1l10.9,44h-37.5l-13.6-44H368.6z M320.1,183.1l10.9,44h-37.5l-13.6-44H320.1z M267.3,183.5l10.9,44h-37.5l-13.6-44
	H267.3z M218.9,183.5l10.9,44h-37.5l-13.6-44H218.9z M167.8,183.3l10.9,44h-37.5l-13.6-44H167.8z M119.3,183.3l10.9,44H92.7
	l-13.6-44H119.3z M66.5,183.7l10.9,44H39.9l-13.6-44H66.5z M-22.1,183.7H18l10.9,44H-8.6L-22.1,183.7z M-7.4,238h40.2l10.9,44H6.2
	L-7.4,238z M8.6,293.3h40.2l10.9,44H22.2L8.6,293.3z M36.4,391.1l-13.6-44H63l10.9,44H36.4z M84.9,391.1l-13.6-44h40.2l10.9,44H84.9
	z M109.9,292.9h40.2l10.9,44h-37.5L109.9,292.9z M137.6,390.7l-13.6-44h40.2l10.9,44H137.6z M186.1,390.7l-13.6-44h40.2l10.9,44
	H186.1z M237.2,390.9l-13.6-44h40.2l10.9,44H237.2z M285.6,390.9l-13.6-44h40.2l10.9,44H285.6z M310.7,292.7h40.2l10.9,44h-37.5
	L310.7,292.7z M338.4,390.5l-13.6-44H365l10.9,44H338.4z M410.2,390.5h-21.7l-12.6-43.4h44.5L410.2,390.5z M427,336.7h-6.6
	l-12.8-43.4l31.5-0.4L427,336.7z M406,281.4l-13.6-44h40.2l10.9,44H406z M445.5,264.2l-6.3-26.6l13.1-0.2L445.5,264.2z M455.1,227.1
	h-19.5l-8.6-42.6h36.9L455.1,227.1z"/>
<path class="st0" d="M473.5,180.9c-0.4,2.3-0.8,4.7-1.1,7.2h-0.8L473.5,180.9z"/>
<path class="st0" d="M85.9,433c-18.8,0-34,15.2-34,34c0,18.8,15.2,34,34,34c18.7,0,34-15.2,34-34C119.9,448.2,104.6,433,85.9,433z
	 M85.9,482.7c-8.7,0-15.8-7-15.8-15.7c0-8.7,7.1-15.7,15.8-15.7c8.7,0,15.7,7,15.7,15.7C101.6,475.7,94.6,482.7,85.9,482.7z"/>
<path class="st0" d="M361.8,433c-18.8,0-34,15.2-34,34c0,18.8,15.2,34,34,34s34-15.2,34-34C395.7,448.2,380.5,433,361.8,433z
	 M361.8,482.7c-8.7,0-15.7-7-15.7-15.7c0-8.7,7-15.7,15.7-15.7c8.7,0,15.7,7,15.7,15.7C377.5,475.7,370.5,482.7,361.8,482.7z"/>
</svg>
